<svg width="75" height="39" viewBox="0 0 75 39" fill="none" xmlns="http://www.w3.org/2000/svg">
<path fill-rule="evenodd" clip-rule="evenodd" d="M45.2001 36.7098L47.9193 38.5875H42.4739H37.032L39.7477 36.7098V1.96248L37.032 0.0847168H42.4739H47.9193L45.2001 1.96248V36.7098Z" fill="white"/>
<path fill-rule="evenodd" clip-rule="evenodd" d="M33.2285 38.46L27.8319 36.5994C13.2492 44.2449 1.28116 32.2582 0.0923745 19.889C-0.876785 9.84558 5.77485 -0.590671 20.2948 0.0260635C26.6013 0.325817 28.8499 2.54813 31.6737 4.65674L33.9606 4.09169L31.1578 11.4925L28.7558 6.29332C21.7729 -4.05679 4.79524 0.577335 5.00789 16.7468C5.1822 29.8395 14.5565 37.8846 27.7831 35.304V21.7082L25.0639 19.8305H30.5058H35.9478L33.2285 21.7082L33.2251 38.4565L33.2285 38.46Z" fill="white"/>
<path fill-rule="evenodd" clip-rule="evenodd" d="M72.2807 36.7098L74.9999 38.5875H69.5545H64.1125L66.8283 36.7098V1.96248L64.1125 0.0847168H69.5545H74.9999L72.2807 1.96248V36.7098Z" fill="white"/>
<path fill-rule="evenodd" clip-rule="evenodd" d="M54.2013 21.0158C54.4035 21.2466 54.5848 21.4913 54.7278 21.729C55.8154 23.5344 55.7004 25.7016 56.0281 26.37C56.3628 24.6611 56.4743 23.1244 57.304 21.7393C57.454 21.4878 57.6039 21.2742 57.7538 21.0882C57.9908 20.8918 58.2418 20.7195 58.4859 20.5817C60.3475 19.5274 62.5856 19.6411 63.2724 19.3206C61.5084 18.9968 59.9222 18.8865 58.4928 18.0837C58.2035 17.9218 57.9594 17.7599 57.7538 17.5945C57.2064 16.9743 56.7358 16.0819 56.4743 14.7623C56.3523 14.1421 56.192 12.7881 56.0002 12.2988C55.7353 14.1352 55.4041 16.2611 54.2188 17.6427C53.5773 18.1733 52.657 18.6316 51.2939 18.8865C50.6559 19.0037 49.2545 19.1622 48.7524 19.3448C50.6175 19.5963 52.772 19.9133 54.1979 21.0158H54.2013Z" fill="white"/>
</svg>
